HIERARCHY
ROOT Hips
{
	OFFSET -218.283997 91.576897 -173.547501
	CHANNELS 6 Xposition Yposition Zposition Zrotation Yrotation Xrotation 
	JOINT LeftUpLeg
	{
		OFFSET 0.103458 1.857835 10.548497
		CHANNELS 3 Zrotation Yrotation Xrotation
		JOINT LeftLeg
		{
			OFFSET 43.500000 -0.000034 -0.000013
			CHANNELS 3 Zrotation Yrotation Xrotation
			JOINT LeftFoot
			{
				OFFSET 42.372192 0.000011 0.000010
				CHANNELS 3 Zrotation Yrotation Xrotation
				JOINT LeftToe
				{
					OFFSET 17.299994 -0.000002 -0.000009
					CHANNELS 3 Zrotation Yrotation Xrotation
					End Site
					{
						OFFSET 0.000000 0.000000 0.000000
					}
				}
			}
		}
	}
	JOINT RightUpLeg
	{
		OFFSET 0.103456 1.857832 -10.548508
		CHANNELS 3 Zrotation Yrotation Xrotation
		JOINT RightLeg
		{
			OFFSET 43.500038 -0.000027 0.000004
			CHANNELS 3 Zrotation Yrotation Xrotation
			JOINT RightFoot
			{
				OFFSET 42.372261 -0.000011 0.000014
				CHANNELS 3 Zrotation Yrotation Xrotation
				JOINT RightToe
				{
					OFFSET 17.299995 -0.000004 0.000011
					CHANNELS 3 Zrotation Yrotation Xrotation
					End Site
					{
						OFFSET 0.000000 0.000000 0.000000
					}
				}
			}
		}
	}
	JOINT Spine
	{
		OFFSET 6.901970 -2.603727 -0.000002
		CHANNELS 3 Zrotation Yrotation Xrotation
		JOINT Spine1
		{
			OFFSET 12.588097 -0.000001 0.000008
			CHANNELS 3 Zrotation Yrotation Xrotation
			JOINT Spine2
			{
				OFFSET 12.343203 0.000000 -0.000005
				CHANNELS 3 Zrotation Yrotation Xrotation
				JOINT Neck
				{
					OFFSET 25.832903 -0.000002 -0.000005
					CHANNELS 3 Zrotation Yrotation Xrotation
					JOINT Head
					{
						OFFSET 11.766603 0.000011 -0.000000
						CHANNELS 3 Zrotation Yrotation Xrotation
						End Site
						{
							OFFSET 0.000000 0.000000 0.000000
						}
					}
				}
				JOINT LeftShoulder
				{
					OFFSET 19.745899 -1.480377 6.000100
					CHANNELS 3 Zrotation Yrotation Xrotation
					JOINT LeftArm
					{
						OFFSET 11.284134 -0.000021 -0.000017
						CHANNELS 3 Zrotation Yrotation Xrotation
						JOINT LeftForeArm
						{
							OFFSET 33.000053 0.000002 0.000032
							CHANNELS 3 Zrotation Yrotation Xrotation
							JOINT LeftHand
							{
								OFFSET 25.200005 0.000020 0.000008
								CHANNELS 3 Zrotation Yrotation Xrotation
								End Site
								{
									OFFSET 0.000000 0.000000 0.000000
								}
							}
						}
					}
				}
				JOINT RightShoulder
				{
					OFFSET 19.746092 -1.480377 -6.000073
					CHANNELS 3 Zrotation Yrotation Xrotation
					JOINT RightArm
					{
						OFFSET 11.284133 -0.000016 -0.000019
						CHANNELS 3 Zrotation Yrotation Xrotation
						JOINT RightForeArm
						{
							OFFSET 33.000092 0.000022 0.000006
							CHANNELS 3 Zrotation Yrotation Xrotation
							JOINT RightHand
							{
								OFFSET 25.199783 0.000138 0.000434
								CHANNELS 3 Zrotation Yrotation Xrotation
								End Site
								{
									OFFSET 0.000000 0.000000 0.000000
								}
							}
						}
					}
				}
			}
		}
	}
}
MOTION
Frames: 11
Frame Time: 0.033333
-218.283997 91.576897 -173.547501 90.330181 6.091078 88.358899 -171.744219 -3.320099 -179.939039 -7.647951 -2.879483 -5.197419 82.396916 3.086720 -2.641828 21.454548 0.003093 -0.000001 -175.706767 3.725910 175.572362 -13.481628 1.751232 2.281014 83.616713 -1.010644 2.963482 21.454555 -0.003095 -0.000016 6.067346 -0.132133 0.086289 2.119462 -0.276134 0.136285 1.801374 -0.274970 0.137968 17.623751 1.180306 1.010640 -15.684423 -1.090759 1.458318 -83.545002 -80.397146 -99.101735 -12.495250 -6.325788 -0.556429 -8.094166 -12.500572 0.842203 14.936702 2.799990 4.391847 -154.391795 87.939772 27.340289 -2.758889 1.979565 4.423162 -15.772934 18.014942 -1.243574 16.541490 3.713585 -2.679725 
-218.287704 91.576859 -173.552094 90.330167 6.091079 88.351086 -171.747374 -3.323506 -179.933124 -7.652488 -2.881269 -5.205116 82.396923 3.091639 -2.643833 21.454550 0.003089 0.000000 -175.709594 3.723009 175.565696 -13.481252 1.751222 2.281000 83.616726 -1.010638 2.963485 21.454560 -0.003120 -0.000018 6.067334 -0.132133 0.086282 2.121692 -0.276123 0.136283 1.803571 -0.274977 0.137980 17.634707 1.188732 1.035239 -15.695259 -1.097814 1.486937 -83.549845 -80.395916 -99.096961 -12.483961 -6.318579 -0.558874 -8.101264 -12.503300 0.842196 14.928770 2.803592 4.391831 -154.432654 87.936828 27.299452 -2.767846 1.981976 4.362805 -15.772929 18.021995 -1.243560 16.532278 3.701068 -2.638519 
-218.307602 91.576218 -173.579193 90.330174 6.091076 88.303862 -171.771594 -3.340103 -179.924245 -7.685996 -2.889158 -5.236018 82.396923 3.111081 -2.653771 21.454548 0.003094 -0.000000 -175.735003 3.708096 175.534318 -13.493238 1.756084 2.273022 83.616713 -1.005490 2.961295 21.454557 -0.003111 -0.000018 6.073346 -0.132138 0.086288 2.133706 -0.276131 0.136285 1.815607 -0.274978 0.137972 17.692808 1.251798 1.153761 -15.756099 -1.144750 1.629475 -83.578245 -80.383888 -99.069483 -12.448679 -6.281939 -0.575694 -8.132037 -12.521640 0.842203 14.862220 2.852589 4.384522 -154.475260 87.926699 27.256918 -2.840070 1.963914 4.253502 -15.772929 18.062150 -1.243568 16.523501 3.678260 -2.547530 
-218.327805 91.575783 -173.606201 90.330174 6.091076 88.275407 -171.796661 -3.351705 -179.909915 -7.721457 -2.892137 -5.259981 82.396923 3.125693 -2.663891 21.454551 0.003091 0.000001 -175.758744 3.698496 175.526832 -13.509085 1.762319 2.260239 83.616719 -0.998956 2.950400 21.454558 -0.003107 -0.000016 6.081146 -0.132141 0.086290 2.149300 -0.276137 0.136292 1.831199 -0.274970 0.137969 17.749047 1.334725 1.247893 -15.825347 -1.214349 1.754345 -83.554394 -80.379305 -99.093996 -12.427072 -6.241502 -0.588594 -8.163014 -12.542684 0.842186 14.817791 2.949766 4.441273 -154.428719 87.913994 27.303584 -2.917362 1.924623 4.319970 -15.767913 18.109330 -1.243572 16.558759 3.707787 -2.570777 
-218.349106 91.575653 -173.633408 90.330174 6.091078 88.260066 -171.821974 -3.361998 -179.902101 -7.752675 -2.892315 -5.273502 82.396923 3.133209 -2.673204 21.454551 0.003089 -0.000000 -175.783060 3.690793 175.526518 -13.526510 1.770415 2.249769 83.616726 -0.994262 2.938342 21.454558 -0.003113 -0.000018 6.089516 -0.132139 0.086287 2.166020 -0.276134 0.136290 1.847923 -0.274970 0.137963 17.785835 1.398711 1.305371 -15.872900 -1.267367 1.834384 -83.441791 -80.384585 -99.206633 -12.420989 -6.197936 -0.515036 -8.165284 -12.578422 0.842205 14.794719 3.107321 4.458599 -154.861781 87.906133 26.869355 -2.940069 1.885694 4.411219 -15.787736 18.158893 -1.243548 16.619635 3.759680 -2.638442 
-218.371902 91.576263 -173.660004 90.330188 6.090869 88.257403 -171.843338 -3.371590 -179.918630 -7.768417 -2.888297 -5.269293 82.387402 3.128801 -2.680267 21.454553 0.003097 0.000001 -175.807034 3.683508 175.530411 -13.542360 1.779594 2.243860 83.616726 -0.993448 2.924616 21.454557 -0.003110 -0.000018 6.097208 -0.132136 0.086279 2.181425 -0.276143 0.136283 1.863320 -0.274972 0.137974 17.810043 1.443479 1.335673 -15.898384 -1.308998 1.881386 -83.318534 -80.396285 -99.329454 -12.408240 -6.163527 -0.437299 -8.172882 -12.616950 0.842206 14.778631 3.238160 4.477804 -155.623989 87.904261 26.104862 -2.927973 1.852807 4.541168 -15.818723 18.201759 -1.243584 16.643933 3.775414 -2.737957 
-218.395203 91.577293 -173.685898 90.330174 6.090934 88.264950 -171.869730 -3.382899 -179.941935 -7.786715 -2.879329 -5.253439 82.377149 3.115867 -2.688575 21.454555 0.003100 0.000000 -175.829273 3.673406 175.539099 -13.555322 1.788144 2.241709 83.616726 -0.995014 2.907699 21.454558 -0.003105 -0.000016 6.103519 -0.132139 0.086286 2.194027 -0.276138 0.136294 1.875939 -0.274964 0.137961 17.834508 1.450499 1.339994 -15.915613 -1.330623 1.893627 -83.234215 -80.418702 -99.411962 -12.383889 -6.149666 -0.389345 -8.200182 -12.648343 0.842200 14.780249 3.280944 4.478909 -156.153260 87.922833 25.573453 -2.899758 1.819298 4.681567 -15.848347 18.211781 -1.243560 16.626429 3.764295 -2.851671 
-218.418198 91.578506 -173.711700 90.330188 6.090461 88.276917 -171.902679 -3.394193 -179.958436 -7.812460 -2.868804 -5.238169 82.369062 3.102820 -2.698838 21.454553 0.003078 -0.000001 -175.851334 3.661302 175.547746 -13.567997 1.795233 2.242337 83.616726 -0.999825 2.888125 21.454558 -0.003110 -0.000019 6.108736 -0.132139 0.086273 2.204460 -0.276128 0.141687 1.886341 -0.274984 0.143391 17.858003 1.411092 1.321878 -15.921021 -1.319871 1.870429 -83.146679 -80.445558 -99.497230 -12.363289 -6.154326 -0.319582 -8.202813 -12.660221 0.842201 14.764062 3.283082 4.450218 -156.532937 87.973772 25.191558 -2.841918 1.776637 4.873246 -15.901189 18.182092 -1.243567 16.591800 3.738667 -2.981832 
-218.439697 91.580002 -173.738205 90.335126 6.088651 88.287080 -171.937377 -3.400804 -179.982192 -7.838102 -2.856670 -5.218958 82.359254 3.086883 -2.709415 21.454551 0.003097 0.000001 -175.877330 3.652410 175.547377 -13.584099 1.802221 2.247526 83.616726 -1.007917 2.867450 21.454558 -0.003107 -0.000017 6.113906 -0.132135 0.086288 2.214798 -0.276140 0.148162 1.896686 -0.274972 0.149883 17.872848 1.366683 1.302499 -15.904910 -1.313267 1.847129 -83.102174 -80.453768 -99.541128 -12.358962 -6.174967 -0.290191 -8.189247 -12.658540 0.842199 14.733601 3.234177 4.515656 -156.497707 87.992501 25.226704 -2.822400 1.774414 4.996134 -15.932745 18.175444 -1.243577 16.559124 3.720449 -2.988347 
-218.459305 91.581627 -173.765198 90.344230 6.083775 88.292353 -171.970981 -3.402403 179.973217 -7.860230 -2.843682 -5.189571 82.346830 3.064165 -2.718501 21.454553 0.003093 -0.000000 -175.907137 3.648810 175.524305 -13.602139 1.813086 2.262875 83.616726 -1.022996 2.847423 21.454555 -0.003111 -0.000018 6.119365 -0.132138 0.086282 2.225698 -0.276136 0.157045 1.907586 -0.274970 0.158731 17.885151 1.315074 1.280116 -15.880214 -1.306131 1.820390 -83.083849 -80.455667 -99.559487 -12.353241 -6.197350 -0.286487 -8.164383 -12.653036 0.842197 14.704315 3.224271 4.556712 -156.132442 87.945570 25.594131 -2.855774 1.851954 5.001827 -15.932128 18.195750 -1.243571 16.531732 3.692232 -2.926603 
-218.477997 91.582748 -173.792496 90.349899 6.078765 88.290044 -172.005351 -3.408202 179.908016 -7.887041 -2.833290 -5.151274 82.337343 3.035607 -2.726247 21.454553 0.003094 0.000000 -175.934403 3.639695 175.460798 -13.611796 1.825024 2.298220 83.616726 -1.050833 2.832836 21.454558 -0.003113 -0.000017 6.123900 -0.132141 0.086276 2.234776 -0.276124 0.167499 1.916672 -0.274973 0.169151 17.908814 1.250011 1.253030 -15.863751 -1.295185 1.787356 -83.101996 -80.455892 -99.541183 -12.342601 -6.232029 -0.299394 -8.108392 -12.649551 0.842193 14.661621 3.216210 4.608750 -155.494707 87.936637 26.234162 -2.882382 1.899134 4.903120 -15.916627 18.205900 -1.243564 16.523189 3.693165 -2.858874 
